<svg width="16" height="16" viewBox="0 0 24 24" fill="none" xmlns="http://www.w3.org/2000/svg">
<path fill-rule="evenodd" clip-rule="evenodd" d="M12 2.75C7.204 2.75 3.25972 6.40058 2.7957 11.0741C2.75478 11.4863 2.38746 11.7873 1.97527 11.7463C1.56308 11.7054 1.26212 11.3381 1.30304 10.9259C1.84247 5.49278 6.42529 1.25 12 1.25C16.4093 1.25 20.197 3.90459 21.8552 7.69972C22.021 8.07929 21.8478 8.52143 21.4682 8.68726C21.0886 8.8531 20.6465 8.67984 20.4806 8.30028C19.0526 5.03179 15.7919 2.75 12 2.75Z" fill="currentColor"/>
<path fill-rule="evenodd" clip-rule="evenodd" d="M22 2.25C22.4142 2.25 22.75 2.58579 22.75 3V7.4C22.75 8.14558 22.1456 8.75 21.4 8.75H17C16.5858 8.75 16.25 8.41421 16.25 8C16.25 7.58579 16.5858 7.25 17 7.25H21.25V3C21.25 2.58579 21.5858 2.25 22 2.25Z" fill="currentColor"/>
<path fill-rule="evenodd" clip-rule="evenodd" d="M12.0493 21.25C16.8453 21.25 20.7896 17.5994 21.2536 12.9259C21.2945 12.5137 21.6619 12.2127 22.074 12.2537C22.4862 12.2946 22.7872 12.6619 22.7463 13.0741C22.2068 18.5072 17.624 22.75 12.0493 22.75C7.63997 22.75 3.8523 20.0954 2.19414 16.3003C2.0283 15.9207 2.20156 15.4786 2.58113 15.3127C2.96069 15.1469 3.40283 15.3202 3.56867 15.6997C4.99674 18.9682 8.25739 21.25 12.0493 21.25Z" fill="currentColor"/>
<path fill-rule="evenodd" clip-rule="evenodd" d="M2.04932 21.75C1.6351 21.75 1.29932 21.4142 1.29932 21V16.6C1.29932 15.8544 1.90373 15.25 2.64932 15.25H7.04932C7.46353 15.25 7.79932 15.5858 7.79932 16C7.79932 16.4142 7.46353 16.75 7.04932 16.75H2.79932V21C2.79932 21.4142 2.46353 21.75 2.04932 21.75Z" fill="currentColor"/>
</svg>
